<svg xmlns="http://www.w3.org/2000/svg" xmlns:xlink="http://www.w3.org/1999/xlink" id="Camada_1" x="0px" y="0px" viewBox="0 0 250 266.2" style="enable-background:new 0 0 250 266.2;" xml:space="preserve"><style type="text/css">	.st0{fill:#CFC1AF;}	.st1{fill-rule:evenodd;clip-rule:evenodd;fill:#E08A26;}	.st2{fill-rule:evenodd;clip-rule:evenodd;fill:#FBB315;}	.st3{fill:#E08A26;}	.st4{fill:#FFFFFF;}	.st5{fill:#764E2A;}</style><g>	<g>		<path class="st0" d="M28.5,253.3c0,7.1,43.8,12.9,97.9,12.9c54.1,0,97.9-5.8,97.9-12.9c0-7.1-43.8-12.9-97.9-12.9   C72.3,240.4,28.5,246.2,28.5,253.3z"></path>	</g>	<g id="XMLID_00000046326429556040511420000015760978387879191999_">		<g id="XMLID_00000180347001283413979220000010971306498574288785_">							<ellipse transform="matrix(0.1026 -0.9947 0.9947 0.1026 -21.0285 244.5003)" class="st1" cx="125" cy="133.9" rx="125" ry="125"></ellipse>		</g>	</g>	<g id="XMLID_00000134961288337544984510000001791256818928428472_">		<ellipse transform="matrix(0.1026 -0.9947 0.9947 0.1026 -12.1701 236.5089)" class="st2" cx="125" cy="125" rx="125" ry="125"></ellipse>	</g>	<g id="XMLID_00000047038546487873278010000001846246818057918338_">		<g id="XMLID_00000021841553631345070760000002256906449146411916_">			<path class="st3" d="M125,241.7C60.7,241.7,8.3,189.3,8.3,125C8.3,60.7,60.7,8.3,125,8.3S241.7,60.7,241.7,125    C241.7,189.3,189.3,241.7,125,241.7z M125,9.5C61.3,9.5,9.5,61.3,9.5,125c0,63.7,51.8,115.5,115.5,115.5S240.5,188.7,240.5,125    C240.5,61.3,188.7,9.5,125,9.5z"></path>		</g>	</g>	<g>		<g>			<g>				<path class="st4" d="M46.6,141.2l-7.9-4.1l-7.9,4.1c-0.5,0.2-1,0.3-1.5,0.2c-1.3-0.2-2.2-1.5-2-2.8l1.5-8.8l-6.4-6.2     c-0.4-0.4-0.6-0.9-0.7-1.4c-0.2-1.3,0.7-2.6,2.1-2.8l8.8-1.3l3.9-7.9c0.2-0.5,0.6-0.9,1.1-1.1c1.2-0.6,2.7-0.1,3.3,1.1l3.9,7.9     l8.8,1.3c0.6,0.1,1.1,0.3,1.5,0.8c0.9,1,0.9,2.5-0.1,3.5l-6.4,6.2l1.5,8.7c0,0.1,0,0.3,0,0.5c0,1.4-1.1,2.4-2.5,2.4     C47.3,141.5,46.9,141.4,46.6,141.2z"></path>			</g>		</g>		<g>			<g>				<path class="st4" d="M50.9,100.9l-4.5-2.3l-4.5,2.3c-0.3,0.1-0.6,0.2-0.9,0.1c-0.8-0.1-1.3-0.8-1.1-1.6l0.9-5L37.2,91     c-0.2-0.2-0.4-0.5-0.4-0.8c-0.1-0.8,0.4-1.5,1.2-1.6l5-0.7l2.2-4.5c0.1-0.3,0.4-0.5,0.6-0.6c0.7-0.3,1.5-0.1,1.9,0.6l2.2,4.5     l5,0.7c0.3,0,0.6,0.2,0.9,0.4c0.5,0.6,0.5,1.4-0.1,2l-3.6,3.5l0.9,5c0,0.1,0,0.2,0,0.3c0,0.8-0.6,1.4-1.4,1.4     C51.3,101.1,51.1,101,50.9,100.9z"></path>			</g>		</g>		<g>			<g>				<path class="st4" d="M58.9,73.3l-2.8-1.5l-2.8,1.5c-0.2,0.1-0.4,0.1-0.5,0.1c-0.5-0.1-0.8-0.5-0.7-1l0.5-3.1l-2.3-2.2     c-0.1-0.1-0.2-0.3-0.3-0.5c-0.1-0.5,0.3-0.9,0.7-1l3.1-0.4l1.4-2.8c0.1-0.2,0.2-0.3,0.4-0.4c0.4-0.2,1,0,1.2,0.4l1.4,2.8     l3.1,0.4c0.2,0,0.4,0.1,0.5,0.3c0.3,0.4,0.3,0.9,0,1.2l-2.3,2.2l0.5,3.1c0,0.1,0,0.1,0,0.2c0,0.5-0.4,0.9-0.9,0.9     C59.2,73.4,59,73.4,58.9,73.3z"></path>			</g>		</g>		<g>			<g>				<path class="st4" d="M58.9,186.8l-2.8-1.5l-2.8,1.5c-0.2,0.1-0.4,0.1-0.5,0.1c-0.5-0.1-0.8-0.5-0.7-1l0.5-3.1l-2.3-2.2     c-0.1-0.1-0.2-0.3-0.3-0.5c-0.1-0.5,0.3-0.9,0.7-1l3.1-0.4l1.4-2.8c0.1-0.2,0.2-0.3,0.4-0.4c0.4-0.2,1,0,1.2,0.4l1.4,2.8     l3.1,0.4c0.2,0,0.4,0.1,0.5,0.3c0.3,0.4,0.3,0.9,0,1.2l-2.3,2.2l0.5,3.1c0,0.1,0,0.1,0,0.2c0,0.5-0.4,0.9-0.9,0.9     C59.2,187,59,186.9,58.9,186.8z"></path>			</g>		</g>		<g>			<g>				<path class="st4" d="M50.9,168.1l-4.5-2.3l-4.5,2.3c-0.3,0.1-0.6,0.2-0.9,0.1c-0.8-0.1-1.3-0.8-1.1-1.6l0.9-5l-3.6-3.5     c-0.2-0.2-0.4-0.5-0.4-0.8c-0.1-0.8,0.4-1.5,1.2-1.6l5-0.7l2.2-4.5c0.1-0.3,0.4-0.5,0.6-0.6c0.7-0.3,1.5-0.1,1.9,0.6l2.2,4.5     l5,0.7c0.3,0,0.6,0.2,0.9,0.4c0.5,0.6,0.5,1.4-0.1,2l-3.6,3.5l0.9,5c0,0.1,0,0.2,0,0.3c0,0.8-0.6,1.4-1.4,1.4     C51.3,168.3,51.1,168.2,50.9,168.1z"></path>			</g>		</g>	</g>	<g>		<g>			<g>				<path class="st4" d="M201.7,141.6c-1.4,0-2.5-1.1-2.5-2.4c0-0.2,0-0.3,0-0.5l1.5-8.7l-6.4-6.2c-1-0.9-1.1-2.5-0.1-3.5     c0.4-0.4,0.9-0.7,1.5-0.8l8.8-1.3l3.9-7.9c0.6-1.2,2.1-1.7,3.3-1.1c0.5,0.2,0.9,0.6,1.1,1.1l3.9,7.9l8.8,1.3     c1.3,0.2,2.3,1.4,2.1,2.8c-0.1,0.5-0.3,1-0.7,1.4l-6.4,6.2l1.5,8.8c0.2,1.3-0.7,2.6-2,2.8c-0.5,0.1-1.1,0-1.5-0.2l-7.9-4.1     l-7.9,4.1C202.5,141.4,202.1,141.5,201.7,141.6z"></path>			</g>		</g>		<g>			<g>				<path class="st4" d="M197.9,101.1c-0.8,0-1.4-0.6-1.4-1.4c0-0.1,0-0.2,0-0.3l0.9-5l-3.6-3.5c-0.6-0.5-0.6-1.4-0.1-2     c0.2-0.2,0.5-0.4,0.9-0.4l5-0.7l2.2-4.5c0.3-0.7,1.2-1,1.9-0.6c0.3,0.1,0.5,0.4,0.6,0.6l2.2,4.5l5,0.7c0.8,0.1,1.3,0.8,1.2,1.6     c0,0.3-0.2,0.6-0.4,0.8l-3.6,3.5l0.9,5c0.1,0.8-0.4,1.5-1.1,1.6c-0.3,0.1-0.6,0-0.9-0.1l-4.5-2.3l-4.5,2.3     C198.3,101,198.1,101.1,197.9,101.1z"></path>			</g>		</g>		<g>			<g>				<path class="st4" d="M190.1,73.4c-0.5,0-0.9-0.4-0.9-0.9c0-0.1,0-0.1,0-0.2l0.5-3.1l-2.3-2.2c-0.4-0.3-0.4-0.9,0-1.2     c0.1-0.2,0.3-0.2,0.5-0.3l3.1-0.4l1.4-2.8c0.2-0.4,0.7-0.6,1.2-0.4c0.2,0.1,0.3,0.2,0.4,0.4l1.4,2.8l3.1,0.4     c0.5,0.1,0.8,0.5,0.7,1c0,0.2-0.1,0.4-0.3,0.5l-2.3,2.2l0.5,3.1c0.1,0.5-0.2,0.9-0.7,1c-0.2,0-0.4,0-0.5-0.1l-2.8-1.5l-2.8,1.5     C190.4,73.4,190.2,73.4,190.1,73.4z"></path>			</g>		</g>		<g>			<g>				<path class="st4" d="M190.1,187c-0.5,0-0.9-0.4-0.9-0.9c0-0.1,0-0.1,0-0.2l0.5-3.1l-2.3-2.2c-0.4-0.3-0.4-0.9,0-1.2     c0.1-0.2,0.3-0.2,0.5-0.3l3.1-0.4l1.4-2.8c0.2-0.4,0.7-0.6,1.2-0.4c0.2,0.1,0.3,0.2,0.4,0.4l1.4,2.8l3.1,0.4     c0.5,0.1,0.8,0.5,0.7,1c0,0.2-0.1,0.4-0.3,0.5l-2.3,2.2l0.5,3.1c0.1,0.5-0.2,0.9-0.7,1c-0.2,0-0.4,0-0.5-0.1l-2.8-1.5l-2.8,1.5     C190.4,186.9,190.2,187,190.1,187z"></path>			</g>		</g>		<g>			<g>				<path class="st4" d="M197.9,168.3c-0.8,0-1.4-0.6-1.4-1.4c0-0.1,0-0.2,0-0.3l0.9-5l-3.6-3.5c-0.6-0.5-0.6-1.4-0.1-2     c0.2-0.2,0.5-0.4,0.9-0.4l5-0.7l2.2-4.5c0.3-0.7,1.2-1,1.9-0.6c0.3,0.1,0.5,0.4,0.6,0.6l2.2,4.5l5,0.7c0.8,0.1,1.3,0.8,1.2,1.6     c0,0.3-0.2,0.6-0.4,0.8l-3.6,3.5l0.9,5c0.1,0.8-0.4,1.5-1.1,1.6c-0.3,0.1-0.6,0-0.9-0.1l-4.5-2.3l-4.5,2.3     C198.3,168.2,198.1,168.3,197.9,168.3z"></path>			</g>		</g>	</g>	<g>		<g>			<path class="st5" d="M108.7,183c0,2.1-0.4,4.1-1.1,5.9c-0.7,1.8-1.8,3.4-3.1,4.7c-1.3,1.3-3,2.4-4.9,3.1c-1.9,0.7-4,1.1-6.3,1.1    H81.8v-29.6h11.5c2.3,0,4.4,0.4,6.3,1.1c1.9,0.7,3.5,1.8,4.9,3.1c1.3,1.3,2.4,2.9,3.1,4.7C108.3,178.9,108.7,180.9,108.7,183z     M101.6,183c0-1.5-0.2-2.8-0.6-4c-0.4-1.2-0.9-2.2-1.6-3c-0.7-0.8-1.6-1.5-2.6-1.9c-1-0.4-2.2-0.7-3.5-0.7h-4.6v19.1h4.6    c1.3,0,2.5-0.2,3.5-0.7c1-0.4,1.9-1.1,2.6-1.9c0.7-0.8,1.3-1.8,1.6-3C101.4,185.8,101.6,184.5,101.6,183z"></path>		</g>		<g>			<path class="st5" d="M118.6,197.9h-6.9v-29.6h6.9V197.9z"></path>		</g>		<g>			<path class="st5" d="M149.9,197.9h-5.3c-0.6,0-1.1-0.1-1.4-0.4c-0.4-0.3-0.6-0.6-0.8-1.1l-1.7-5.2h-11.3l-1.7,5.2    c-0.2,0.4-0.4,0.7-0.8,1c-0.4,0.3-0.9,0.5-1.4,0.5H120l11.5-29.6h7L149.9,197.9z M139,186.5l-2.7-8.1c-0.2-0.5-0.4-1.1-0.7-1.8    c-0.2-0.7-0.5-1.5-0.7-2.3c-0.2,0.8-0.4,1.6-0.7,2.3c-0.2,0.7-0.4,1.3-0.7,1.8l-2.7,8.1H139z"></path>		</g>		<g>			<path class="st5" d="M167.6,174.2c-0.2,0.3-0.4,0.6-0.6,0.7c-0.2,0.2-0.5,0.2-0.9,0.2c-0.3,0-0.6-0.1-1-0.3    c-0.4-0.2-0.8-0.4-1.2-0.7c-0.5-0.2-1-0.5-1.6-0.7c-0.6-0.2-1.2-0.3-2-0.3c-1.3,0-2.2,0.3-2.9,0.8c-0.6,0.6-0.9,1.3-0.9,2.2    c0,0.6,0.2,1.1,0.6,1.5c0.4,0.4,0.9,0.7,1.5,1c0.6,0.3,1.3,0.5,2.1,0.8c0.8,0.2,1.6,0.5,2.4,0.8c0.8,0.3,1.6,0.6,2.4,1    s1.5,0.9,2.1,1.5c0.6,0.6,1.1,1.4,1.5,2.2c0.4,0.9,0.6,1.9,0.6,3.2c0,1.4-0.2,2.7-0.7,3.8c-0.5,1.2-1.2,2.2-2.1,3.1    s-2,1.6-3.3,2.1c-1.3,0.5-2.8,0.8-4.5,0.8c-0.9,0-1.9-0.1-2.8-0.3c-1-0.2-1.9-0.5-2.8-0.8c-0.9-0.3-1.7-0.8-2.5-1.2    c-0.8-0.5-1.5-1-2.1-1.6l2-3.2c0.2-0.2,0.4-0.4,0.6-0.6c0.3-0.2,0.6-0.2,0.9-0.2c0.4,0,0.8,0.1,1.2,0.4c0.4,0.3,0.9,0.5,1.4,0.9    c0.5,0.3,1.1,0.6,1.8,0.9c0.7,0.3,1.5,0.4,2.4,0.4c1.2,0,2.2-0.3,2.9-0.8c0.7-0.5,1-1.4,1-2.6c0-0.7-0.2-1.3-0.6-1.7    c-0.4-0.4-0.9-0.8-1.5-1.1c-0.6-0.3-1.3-0.5-2.1-0.8s-1.6-0.5-2.4-0.7c-0.8-0.3-1.6-0.6-2.4-1c-0.8-0.4-1.5-0.9-2.1-1.5    s-1.1-1.4-1.5-2.4c-0.4-0.9-0.6-2.1-0.6-3.5c0-1.1,0.2-2.2,0.7-3.3c0.4-1.1,1.1-2,2-2.8c0.9-0.8,1.9-1.5,3.2-2    c1.3-0.5,2.7-0.7,4.3-0.7c0.9,0,1.8,0.1,2.7,0.2c0.9,0.1,1.7,0.4,2.5,0.6c0.8,0.3,1.5,0.6,2.2,1c0.7,0.4,1.3,0.8,1.8,1.3    L167.6,174.2z"></path>		</g>	</g>	<g>		<g>			<path class="st5" d="M90.6,56.6H95v5.1c-0.6,0.5-1.3,0.8-2,1c-0.7,0.2-1.4,0.3-2.2,0.3c-1,0-1.9-0.2-2.7-0.5    c-0.8-0.3-1.5-0.8-2.1-1.3c-0.6-0.6-1-1.2-1.4-2c-0.3-0.8-0.5-1.6-0.5-2.5c0-0.9,0.2-1.7,0.5-2.5c0.3-0.8,0.7-1.4,1.3-2    c0.6-0.6,1.2-1,2-1.3c0.8-0.3,1.7-0.5,2.7-0.5c0.5,0,1,0,1.4,0.1c0.4,0.1,0.9,0.2,1.2,0.3c0.4,0.1,0.7,0.3,1,0.5    c0.3,0.2,0.6,0.4,0.8,0.7l-0.8,1.2c-0.1,0.2-0.3,0.3-0.5,0.4s-0.4,0-0.7-0.2c-0.2-0.1-0.4-0.3-0.6-0.3c-0.2-0.1-0.4-0.2-0.6-0.2    c-0.2-0.1-0.4-0.1-0.7-0.1c-0.2,0-0.5,0-0.8,0c-0.5,0-1,0.1-1.4,0.3c-0.4,0.2-0.8,0.5-1.1,0.8c-0.3,0.3-0.5,0.7-0.7,1.2    c-0.2,0.5-0.2,1-0.2,1.6c0,0.6,0.1,1.2,0.3,1.7c0.2,0.5,0.4,0.9,0.8,1.3s0.7,0.6,1.2,0.8c0.5,0.2,1,0.3,1.5,0.3    c0.3,0,0.6,0,0.9-0.1c0.3-0.1,0.5-0.2,0.8-0.3v-1.9h-1.2c-0.2,0-0.3,0-0.4-0.1c-0.1-0.1-0.2-0.2-0.2-0.4V56.6z"></path>		</g>		<g>			<path class="st5" d="M107.2,62.9H105c-0.2,0-0.4-0.1-0.6-0.2c-0.2-0.1-0.3-0.3-0.3-0.4l-0.7-2.1h-4.6L98,62.3    c-0.1,0.2-0.2,0.3-0.3,0.4c-0.2,0.1-0.4,0.2-0.6,0.2h-2.2l4.7-12.2h2.9L107.2,62.9z M102.7,58.2l-1.1-3.3    c-0.1-0.2-0.2-0.5-0.3-0.8c-0.1-0.3-0.2-0.6-0.3-0.9c-0.1,0.3-0.2,0.7-0.3,0.9c-0.1,0.3-0.2,0.5-0.3,0.8l-1.1,3.3H102.7z"></path>		</g>		<g>			<path class="st5" d="M117.7,62.9h-2.6c-0.5,0-0.8-0.2-1-0.5l-2-3.5c-0.1-0.2-0.2-0.3-0.3-0.3c-0.1-0.1-0.3-0.1-0.5-0.1h-0.7v4.5    h-2.8V50.7h4c0.9,0,1.6,0.1,2.3,0.3c0.6,0.2,1.1,0.4,1.5,0.8c0.4,0.3,0.7,0.7,0.9,1.1c0.2,0.4,0.3,0.9,0.3,1.4    c0,0.4-0.1,0.8-0.2,1.1c-0.1,0.4-0.3,0.7-0.5,1c-0.2,0.3-0.5,0.6-0.8,0.8c-0.3,0.2-0.7,0.4-1.1,0.6c0.2,0.1,0.4,0.2,0.5,0.4    c0.2,0.1,0.3,0.3,0.4,0.5L117.7,62.9z M111.7,56.4c0.4,0,0.7,0,1-0.1c0.3-0.1,0.5-0.2,0.7-0.4c0.2-0.2,0.3-0.4,0.4-0.6    s0.1-0.5,0.1-0.7c0-0.5-0.2-1-0.5-1.3c-0.3-0.3-0.9-0.5-1.6-0.5h-1.1v3.6H111.7z"></path>		</g>		<g>			<path class="st5" d="M129.3,62.9h-2.2c-0.2,0-0.4-0.1-0.6-0.2c-0.2-0.1-0.3-0.3-0.3-0.4l-0.7-2.1h-4.6l-0.7,2.1    c-0.1,0.2-0.2,0.3-0.3,0.4c-0.2,0.1-0.4,0.2-0.6,0.2H117l4.7-12.2h2.9L129.3,62.9z M124.8,58.2l-1.1-3.3    c-0.1-0.2-0.2-0.5-0.3-0.8c-0.1-0.3-0.2-0.6-0.3-0.9c-0.1,0.3-0.2,0.7-0.3,0.9c-0.1,0.3-0.2,0.5-0.3,0.8l-1.1,3.3H124.8z"></path>		</g>		<g>			<path class="st5" d="M140.5,50.7v12.2H139c-0.2,0-0.4,0-0.5-0.1c-0.1-0.1-0.3-0.2-0.4-0.4l-5.8-7.3c0,0.2,0,0.4,0,0.6    c0,0.2,0,0.4,0,0.6v6.5h-2.5V50.7h1.5c0.1,0,0.2,0,0.3,0c0.1,0,0.2,0,0.2,0.1c0.1,0,0.1,0.1,0.2,0.1c0.1,0.1,0.1,0.1,0.2,0.2    l5.8,7.3c0-0.2,0-0.5-0.1-0.7c0-0.2,0-0.4,0-0.6v-6.5H140.5z"></path>		</g>		<g>			<path class="st5" d="M151.2,52.9h-3.4v10h-2.8v-10h-3.4v-2.2h9.7V52.9z"></path>		</g>		<g>			<path class="st5" d="M155.1,62.9h-2.8V50.7h2.8V62.9z"></path>		</g>		<g>			<path class="st5" d="M167.9,62.9h-2.2c-0.2,0-0.4-0.1-0.6-0.2c-0.2-0.1-0.3-0.3-0.3-0.4l-0.7-2.1h-4.6l-0.7,2.1    c-0.1,0.2-0.2,0.3-0.3,0.4c-0.2,0.1-0.4,0.2-0.6,0.2h-2.2l4.7-12.2h2.9L167.9,62.9z M163.4,58.2l-1.1-3.3    c-0.1-0.2-0.2-0.5-0.3-0.8c-0.1-0.3-0.2-0.6-0.3-0.9c-0.1,0.3-0.2,0.7-0.3,0.9c-0.1,0.3-0.2,0.5-0.3,0.8l-1.1,3.3H163.4z"></path>		</g>	</g>	<g>		<path class="st5" d="M98.8,80.3h42.4c2.6,0,4.5,0.8,5.7,2.4c1.2,1.6,1.4,3.6,0.6,5.9L126,151h-15.4l17.9-51.2   c0.8-2.5,1.8-4.7,3-6.7H99.4L98.8,80.3z"></path>	</g></g></svg>